HIERARCHY
ROOT Hips
{
	OFFSET 0.000000 0.000000 0.000000
	CHANNELS 6 Xposition Yposition Zposition Xrotation Yrotation Zrotation
	JOINT LeftUpLeg_virtual
	{
		OFFSET 0.000000 0.000000 0.000000
		CHANNELS 3 Xrotation Yrotation Zrotation
		JOINT LeftUpLeg
		{
			OFFSET 13.026900 -6.336304 -1.092800
			CHANNELS 3 Xrotation Yrotation Zrotation
			JOINT LeftLeg
			{
				OFFSET 0.524474 -46.096886 9.782700
				CHANNELS 3 Xrotation Yrotation Zrotation
				JOINT LeftFoot
				{
					OFFSET -0.524474 -53.427422 -12.948200
					CHANNELS 3 Xrotation Yrotation Zrotation
					JOINT LeftToeBase
					{
						OFFSET 0.192200 -14.009700 16.364100
						CHANNELS 3 Xrotation Yrotation Zrotation
						JOINT LeftToe_End
						{
							OFFSET -1.784700 -0.561700 9.474800
							CHANNELS 3 Xrotation Yrotation Zrotation
							End Site
							{
								OFFSET 0 0 0
							}
						}
					}
				}
			}
		}
	}
	JOINT RightUpLeg_virtual
	{
		OFFSET 0.000000 0.000000 0.000000
		CHANNELS 3 Xrotation Yrotation Zrotation
		JOINT RightUpLeg
		{
			OFFSET -12.883000 -6.336304 -1.092800
			CHANNELS 3 Xrotation Yrotation Zrotation
			JOINT RightLeg
			{
				OFFSET -0.524587 -46.096825 9.782800
				CHANNELS 3 Xrotation Yrotation Zrotation
				JOINT RightFoot
				{
					OFFSET 0.524587 -53.427383 -12.948300
					CHANNELS 3 Xrotation Yrotation Zrotation
					JOINT RightToeBase
					{
						OFFSET -0.192200 -14.009700 16.364100
						CHANNELS 3 Xrotation Yrotation Zrotation
						JOINT RightToe_End
						{
							OFFSET 1.784700 -0.561700 9.474800
							CHANNELS 3 Xrotation Yrotation Zrotation
							End Site
							{
								OFFSET 0 0 0
							}
						}
					}
				}
			}
		}
	}
	JOINT Spine_virtual
	{
		OFFSET 0.000000 0.000000 0.000000
		CHANNELS 3 Xrotation Yrotation Zrotation
		JOINT Spine
		{
			OFFSET 0.072000 7.257294 -0.789700
			CHANNELS 3 Xrotation Yrotation Zrotation
			JOINT Spine1
			{
				OFFSET 0.000000 12.508769 -0.658067
				CHANNELS 3 Xrotation Yrotation Zrotation
				JOINT Spine1_split
				{
					OFFSET 0.000000 12.508769 -0.658067
					CHANNELS 3 Xrotation Yrotation Zrotation
					JOINT Spine2
					{
						OFFSET 0.000000 12.508769 -0.658067
						CHANNELS 3 Xrotation Yrotation Zrotation
						JOINT Neck_virtual
						{
							OFFSET 0.000000 0.000000 0.000000
							CHANNELS 3 Xrotation Yrotation Zrotation
							JOINT Neck
							{
								OFFSET 0.000000 14.033295 7.520400
								CHANNELS 3 Xrotation Yrotation Zrotation
								JOINT Head
								{
									OFFSET 0.000000 8.198502 5.703100
									CHANNELS 3 Xrotation Yrotation Zrotation
									JOINT HeadTop_End
									{
										OFFSET 0.000000 17.760803 13.332701
										CHANNELS 3 Xrotation Yrotation Zrotation
										End Site
										{
											OFFSET 0 0 0
										}
									}
								}
							}
						}
						JOINT LeftShoulder_virtual
						{
							OFFSET 0.000000 0.000000 0.000000
							CHANNELS 3 Xrotation Yrotation Zrotation
							JOINT LeftShoulder
							{
								OFFSET 6.292450 5.785301 -0.669000
								CHANNELS 3 Xrotation Yrotation Zrotation
								JOINT LeftShoulder_split
								{
									OFFSET 6.292450 5.785301 -0.669000
									CHANNELS 3 Xrotation Yrotation Zrotation
									JOINT LeftArm
									{
										OFFSET 13.907140 -6.093903 1.965100
										CHANNELS 3 Xrotation Yrotation Zrotation
										JOINT LeftForeArm
										{
											OFFSET 34.140198 0.000000 0.000000
											CHANNELS 3 Xrotation Yrotation Zrotation
											JOINT LeftHand
											{
												OFFSET 40.960209 0.000000 0.000000
												CHANNELS 3 Xrotation Yrotation Zrotation
												End Site
												{
													OFFSET 0 0 0
												}
											}
										}
									}
								}
							}
						}
						JOINT RightShoulder_virtual
						{
							OFFSET 0.000000 0.000000 0.000000
							CHANNELS 3 Xrotation Yrotation Zrotation
							JOINT RightShoulder
							{
								OFFSET -6.292450 5.785301 -0.669000
								CHANNELS 3 Xrotation Yrotation Zrotation
								JOINT RightShoulder_split
								{
									OFFSET -6.292450 5.785301 -0.669000
									CHANNELS 3 Xrotation Yrotation Zrotation
									JOINT RightArm
									{
										OFFSET -13.907140 -6.093903 1.965100
										CHANNELS 3 Xrotation Yrotation Zrotation
										JOINT RightForeArm
										{
											OFFSET -34.140198 0.000000 0.000000
											CHANNELS 3 Xrotation Yrotation Zrotation
											JOINT RightHand
											{
												OFFSET -40.960209 0.000000 0.000000
												CHANNELS 3 Xrotation Yrotation Zrotation
												End Site
												{
													OFFSET 0 0 0
												}
											}
										}
									}
								}
							}
						}
					}
				}
			}
		}
	}
}
MOTION
Frames: 6
Frame Time: 0.03333333
-0.065725 104.293869 53.513424 0.000000 0.000000 0.000000 9.842355 -6.173779 0.244766 -31.565033 6.072934 18.673879 39.843359 6.657735 0.789195 -12.344022 -2.127436 -13.922434 -0.028031 -0.265692 0.432283 0.000000 0.000000 0.000000 10.117239 -6.231252 0.544212 -40.612223 -0.751149 -8.260859 44.380305 1.779031 -3.412965 -10.273719 -11.088197 10.823782 0.118679 0.410956 0.314860 0.000000 0.000000 0.000000 10.016645 -5.781344 0.286700 6.319603 0.167137 -0.369202 1.701890 -0.367668 0.441194 1.049197 1.501110 -0.068977 0.000000 0.000000 0.000000 1.595976 -0.815168 0.415108 12.523726 -0.426071 0.819885 -30.023196 0.765130 -4.887186 0.000000 0.000000 0.000000 1.461935 -0.710088 0.676595 5.905186 -9.337503 19.392285 -1.076259 -4.142273 -0.008931 -32.864698 -15.041072 -13.611623 178.335174 -58.130975 179.662812 0.000000 0.000000 0.000000 0.803398 -0.777182 0.585281 -0.841289 -8.201138 -16.537345 0.456206 -0.216258 1.775435 -38.404030 35.471334 31.167970 179.104321 52.312846 -179.631038 0.000000 0.000000 0.000000 
-0.128218 106.360847 54.417931 0.000000 0.000000 0.000000 10.067953 -5.998950 0.382757 -29.312105 6.790481 18.309787 34.752788 6.739505 0.869117 -10.815896 -2.383930 -13.534334 0.308713 -0.195407 0.243160 0.000000 0.000000 0.000000 10.443678 -5.909630 0.594532 -38.281766 -1.139158 -8.135560 39.931577 1.527539 -3.406704 -8.356754 -11.147654 10.903740 -0.169142 0.383108 0.390600 0.000000 0.000000 0.000000 10.377314 -5.603779 0.403859 6.070357 0.044393 -0.280987 0.848872 -0.399082 0.293316 1.157647 1.399701 0.064815 0.000000 0.000000 0.000000 0.614321 -0.845107 0.283519 12.282983 -0.356115 0.980640 -28.993965 0.733922 -4.673279 0.000000 0.000000 0.000000 0.425768 -0.759020 0.492823 5.910529 -9.317191 19.135127 -1.319484 -3.948976 -0.019082 -32.325414 -15.471220 -13.985588 178.590705 -58.302085 179.902934 0.000000 0.000000 0.000000 -0.243940 -0.794577 0.472774 -0.935285 -8.118194 -16.550448 0.694843 -0.559274 1.857989 -36.940696 36.239980 30.512026 179.027468 52.486035 -179.328761 0.000000 0.000000 0.000000 
-0.183254 108.169075 55.185612 0.000000 0.000000 0.000000 10.239655 -5.766595 0.484579 -27.378832 7.419001 17.955903 30.189054 6.777307 0.888169 -9.307072 -2.808263 -13.188552 0.527353 -0.113628 0.113611 0.000000 0.000000 0.000000 10.705962 -5.476382 0.607843 -36.196400 -1.425363 -8.025137 36.037803 1.239279 -3.384481 -6.552736 -11.195702 10.979536 -0.340093 0.354944 0.459980 0.000000 0.000000 0.000000 10.637267 -5.287664 0.486923 5.917760 -0.062962 -0.209689 0.090665 -0.461297 0.198132 1.210808 1.305649 0.183290 0.000000 0.000000 0.000000 -0.211837 -0.900618 0.215048 11.847372 -0.295048 1.049119 -27.990216 0.754516 -4.505754 0.000000 0.000000 0.000000 -0.480864 -0.810635 0.358982 5.813912 -8.961511 18.878482 -1.456999 -3.892579 0.003755 -31.473631 -16.701150 -14.281700 178.842930 -58.684412 -179.876816 0.000000 0.000000 0.000000 -1.146586 -0.834567 0.390371 -1.070431 -8.119222 -16.448566 0.800345 -0.945456 1.888531 -35.437549 37.065207 30.065308 178.941394 52.724631 -178.991336 0.000000 0.000000 0.000000 
-0.202503 109.531296 55.725716 0.000000 0.000000 0.000000 10.315741 -5.513562 0.537977 -25.940276 7.914647 17.670881 26.559018 6.799618 0.818047 -7.914853 -3.330663 -12.920437 0.597544 -0.030062 0.059351 0.000000 0.000000 0.000000 10.879952 -5.007744 0.591428 -34.556362 -1.624533 -7.959172 32.954679 0.960817 -3.362400 -5.096468 -11.190631 11.017880 -0.254942 0.329715 0.506416 0.000000 0.000000 0.000000 10.788289 -4.937168 0.531824 5.864647 -0.131677 -0.144565 -0.505344 -0.535614 0.160012 1.222810 1.263204 0.200189 0.000000 0.000000 0.000000 -0.820266 -0.975620 0.215777 11.346945 -0.252046 1.064864 -27.006356 0.837071 -4.416983 0.000000 0.000000 0.000000 -1.205623 -0.861162 0.297319 5.641225 -8.262523 18.660567 -1.545126 -3.863113 0.062476 -30.516684 -18.544416 -14.520412 179.108501 -58.819403 -179.618197 0.000000 0.000000 0.000000 -1.820007 -0.883790 0.347174 -1.235069 -8.216927 -16.253494 0.734791 -1.096681 1.891652 -34.145721 37.683875 29.907841 178.879267 52.887118 -178.716531 0.000000 0.000000 0.000000 
-0.201548 110.402290 56.085285 0.000000 0.000000 0.000000 10.334180 -5.313119 0.557738 -25.045337 8.228827 17.484082 24.051809 6.811208 0.661087 -6.679462 -3.889367 -12.740033 0.657661 0.041406 0.059183 0.000000 0.000000 0.000000 10.969485 -4.625243 0.559388 -33.454711 -1.739410 -7.941285 30.850376 0.706922 -3.328310 -4.065595 -11.154456 10.970060 0.005276 0.307412 0.534521 0.000000 0.000000 0.000000 10.829950 -4.581490 0.550553 5.891108 -0.148742 -0.077503 -0.930659 -0.609311 0.159117 1.236494 1.282402 0.140363 0.000000 0.000000 0.000000 -1.212256 -1.052583 0.267654 10.926677 -0.202833 1.066159 -26.017282 0.967758 -4.419141 0.000000 0.000000 0.000000 -1.746976 -0.895239 0.292804 5.408708 -7.241746 18.397700 -1.453096 -4.026568 0.149502 -29.456833 -20.703871 -14.826078 179.356738 -58.360995 -179.364128 0.000000 0.000000 0.000000 -2.239688 -0.933857 0.320877 -1.400116 -8.389077 -16.027182 0.441890 -0.993163 1.981147 -33.010212 37.836799 29.997562 178.886834 52.840970 -178.590814 0.000000 0.000000 0.000000 
-0.199811 110.842834 56.236439 0.000000 0.000000 0.000000 10.318448 -5.199985 0.566431 -24.688991 8.367125 17.407591 22.623659 6.876084 0.421138 -5.699271 -4.384051 -12.540923 0.875813 0.099299 0.060682 0.000000 0.000000 0.000000 10.990389 -4.315583 0.540340 -32.832351 -1.812103 -7.975754 29.625437 0.469150 -3.277165 -3.402406 -11.107184 10.836313 0.274619 0.283674 0.543757 0.000000 0.000000 0.000000 10.798287 -4.234786 0.552100 5.962395 -0.111894 -0.006923 -1.210592 -0.671243 0.168183 1.165576 1.261622 0.035955 0.000000 0.000000 0.000000 -1.454057 -1.121529 0.328638 10.701841 -0.144875 1.068652 -24.957795 1.095528 -4.521572 0.000000 0.000000 0.000000 -2.137438 -0.912155 0.312874 5.159581 -6.044726 17.969217 -1.148687 -4.239100 0.249218 -28.139853 -22.887718 -15.322146 179.517452 -57.393117 -179.188811 0.000000 0.000000 0.000000 -2.461336 -0.978043 0.292035 -1.534661 -8.581470 -15.809711 -0.018066 -0.789495 2.042558 -31.805630 37.340839 30.280575 178.992019 52.570549 -178.669908 0.000000 0.000000 0.000000 
